<svg xmlns="http://www.w3.org/2000/svg" viewBox="0 0 892.85 303.39"><defs><style>.cls-1{fill:#f0b61b;}.cls-2{fill:#5d5fa9;}</style></defs><title>Asset 350</title><g id="Layer_2" data-name="Layer 2"><g id="Work_Area" data-name="Work Area"><path class="cls-1" d="M151.69,151.69v151.7A151.69,151.69,0,0,1,0,151.69Z"/><path class="cls-1" d="M303.39,151.69H151.69V0a151.69,151.69,0,0,1,151.7,151.69"/><path class="cls-2" d="M303.39,151.69a151.7,151.7,0,0,1-151.7,151.7V151.69Z"/><path class="cls-2" d="M440.39,224.05H417.31L373,120.71h23.49L429,198.27l32.44-77.56h23.5Z"/><path class="cls-2" d="M601.74,224.05H580.12V212.2c-8.94,9.36-21.83,14.77-37.43,14.77-27,0-51.15-21.84-51.15-54.48,0-32.44,24.12-54.48,51.15-54.48,15.6,0,28.49,5.4,37.43,14.76V120.92h21.62Zm-21.62-51.56c0-21.63-16.84-35.35-33.89-35.35-18.93,0-33.69,13.72-33.69,35.35,0,21.83,14.76,35.35,33.69,35.35C563.28,207.84,580.12,194.32,580.12,172.49Z"/><path class="cls-2" d="M647.49,191.82c1.45,12.27,12.27,17.47,25.78,17.47,12.48,0,20.38-5.61,20.38-13.72,0-6.24-4.37-10.19-13.93-12.27l-22.46-4.58c-17.88-3.95-28.07-13.51-28.07-28.07,0-19.13,16-32.64,40.76-32.64,23.7,0,39.71,12.47,43.45,29.73l-20.58,4.37c-1.67-10-10.19-16.84-23.5-16.84-12.68,0-18.3,6.23-18.3,13.51,0,5.82,3.33,9.57,12.48,11.65l24.54,5.4c16.63,3.54,26.82,13.31,26.82,27.87,0,21.62-17.68,33.27-43.46,33.27-23.08,0-42.83-9.78-45.54-30.57Z"/><path class="cls-2" d="M765.6,89.94c0,7.69-5.83,13.3-13.73,13.3-8.11,0-13.93-5.61-13.93-13.3a13.83,13.83,0,0,1,27.66,0ZM741.06,224.05V120.92h21.63V224.05Z"/><path class="cls-2" d="M872.89,185.38l20,5.2C887.24,212.83,866.44,227,842.53,227c-29.53,0-54.48-21.84-54.48-54.48,0-32.23,25-54.48,54.48-54.48,23.29,0,43.87,14.14,50.32,36.18l-20.79,6C868.11,145,856.25,138,842.53,138c-19.13,0-33.27,14.14-33.27,34.52,0,21,14.14,34.51,33.27,34.51C856.25,207,867.9,200.35,872.89,185.38Z"/></g></g></svg>