<svg xmlns="http://www.w3.org/2000/svg" viewBox="0 0 519.83 150.54"><defs><style>.cls-1{fill:#5d5fa9;}</style></defs><title>Asset 350</title><g id="Layer_2" data-name="Layer 2"><g id="Work_Area" data-name="Work Area"><path class="cls-1" d="M67.37,147.63H44.29L0,44.29H23.5l32.43,77.56L88.37,44.29h23.5Z"/><path class="cls-1" d="M228.73,147.63H207.1V135.78c-8.94,9.36-21.83,14.76-37.43,14.76-27,0-51.15-21.83-51.15-54.47,0-32.44,24.12-54.48,51.15-54.48,15.6,0,28.49,5.4,37.43,14.76V44.5h21.63ZM207.1,96.07c0-21.63-16.84-35.35-33.89-35.35-18.92,0-33.69,13.72-33.69,35.35,0,21.83,14.77,35.34,33.69,35.34C190.26,131.41,207.1,117.9,207.1,96.07Z"/><path class="cls-1" d="M274.47,115.4c1.46,12.27,12.27,17.47,25.79,17.47,12.47,0,20.37-5.61,20.37-13.72,0-6.24-4.36-10.19-13.93-12.27l-22.46-4.58c-17.88-4-28.07-13.51-28.07-28.07,0-19.13,16-32.64,40.76-32.64,23.7,0,39.71,12.47,43.46,29.73L319.8,75.69c-1.66-10-10.19-16.85-23.5-16.85-12.68,0-18.29,6.24-18.29,13.52,0,5.82,3.32,9.57,12.47,11.65L315,89.41c16.63,3.54,26.82,13.31,26.82,27.86,0,21.63-17.67,33.27-43.46,33.27-23.08,0-42.83-9.77-45.53-30.56Z"/><path class="cls-1" d="M392.58,13.52c0,7.69-5.82,13.3-13.72,13.3-8.11,0-13.94-5.61-13.94-13.3a13.83,13.83,0,0,1,27.66,0ZM368,147.63V44.5h21.63V147.63Z"/><path class="cls-1" d="M499.87,109l20,5.2c-5.61,22.24-26.4,36.38-50.32,36.38C440,150.54,415,128.71,415,96.07c0-32.23,25-54.48,54.48-54.48,23.29,0,43.88,14.14,50.32,36.18L499,83.8c-4-15.18-15.8-22.25-29.53-22.25-19.13,0-33.27,14.14-33.27,34.52,0,21,14.14,34.51,33.27,34.51C483.24,130.58,494.88,123.93,499.87,109Z"/></g></g></svg>